<svg width="24" height="25" viewBox="0 0 24 25" fill="none" xmlns="http://www.w3.org/2000/svg">
<g clip-path="url(#clip0_11_156)">
<path d="M8.03098 7.8245L11.307 1.334C11.3699 1.20343 11.4682 1.09315 11.5907 1.01571C11.7132 0.938275 11.855 0.896796 12 0.895996C12.2745 0.895996 12.549 1.0415 12.6975 1.334L15.9735 7.8245L23.3205 8.8685C23.5036 8.89729 23.6712 8.98836 23.795 9.12636C23.9188 9.26435 23.9912 9.44082 24 9.626C24.0105 9.74928 23.993 9.87333 23.9488 9.9889C23.9047 10.1045 23.835 10.2086 23.745 10.2935L18.4605 15.3275L19.7055 22.4225C19.8225 23.087 19.1655 23.6075 18.5865 23.3105L12 19.9265L5.41648 23.3105C5.34762 23.3462 5.27381 23.3715 5.19748 23.3855C4.68448 23.4755 4.19548 23.0045 4.29748 22.4225L5.54248 15.3275L0.259481 10.2935C0.17735 10.2158 0.112066 10.122 0.0676841 10.018C0.0233018 9.91406 0.000767948 9.80206 0.00148126 9.689C0.00155928 9.52915 0.0456733 9.37242 0.128981 9.236C0.188079 9.1371 0.26863 9.05274 0.364688 8.98913C0.460747 8.92552 0.569862 8.8843 0.683981 8.8685L8.03098 7.8245ZM12 18.1865C12.1211 18.186 12.2405 18.2148 12.348 18.2705L17.877 21.1115L16.836 15.176C16.8114 15.0395 16.8207 14.899 16.8631 14.767C16.9054 14.6349 16.9796 14.5152 17.079 14.4185L21.4395 10.2635L15.3615 9.3995C15.2356 9.38049 15.1163 9.33126 15.0136 9.25602C14.9109 9.18079 14.828 9.08178 14.772 8.9675L12.0015 3.4805L12 3.485V18.185V18.1865Z" fill="#EF3F0A"/>
</g>
<defs>
<clipPath id="clip0_11_156">
<rect width="24" height="24" fill="white" transform="translate(0 0.145996)"/>
</clipPath>
</defs>
</svg>
